<?xml version="1.0" standalone="no"?>
<!DOCTYPE svg PUBLIC "-//W3C//DTD SVG 20010904//EN"
 "http://www.w3.org/TR/2001/REC-SVG-20010904/DTD/svg10.dtd">
<svg version="1.0" xmlns="http://www.w3.org/2000/svg"
 width="164.000000pt" height="176.000000pt" viewBox="0 0 164.000000 176.000000"
 preserveAspectRatio="xMidYMid meet">

<g transform="translate(0.000000,176.000000) scale(0.100000,-0.100000)"
fill="#000000" stroke="none">
<path d="M763 1611 l-173 -66 0 -167 c0 -93 -1 -168 -2 -168 -2 0 -25 9 -53
19 l-50 19 -117 -47 -118 -46 0 -108 0 -109 -60 -26 -60 -27 0 -281 0 -282 63
-26 c34 -15 137 -53 227 -84 l165 -57 3 -47 c2 -27 6 -48 9 -48 3 0 32 10 64
21 l59 22 59 -22 c32 -11 61 -21 65 -21 3 0 6 21 6 46 0 54 -41 33 370 188
l295 111 3 332 2 331 -112 44 -113 44 -5 194 -5 195 -170 67 c-93 36 -172 66
-175 66 -3 0 -83 -30 -177 -67z m167 -685 l0 -714 -37 -15 -38 -15 -5 465 -5
465 -115 43 -115 43 -3 158 c-1 86 2 162 7 167 10 10 280 116 298 116 10 1 13
-156 13 -713z m169 665 c71 -28 139 -55 150 -60 19 -10 20 -24 21 -286 0 -238
-1 -275 -14 -275 -9 0 -49 14 -91 30 -42 16 -78 30 -80 30 -3 0 -5 -10 -5 -23
0 -19 13 -27 93 -58 l92 -35 3 -53 c2 -30 0 -57 -5 -61 -4 -4 -46 7 -93 25
-82 32 -85 33 -88 13 -2 -11 -1 -22 2 -25 3 -3 45 -20 93 -38 l88 -33 3 -53
c2 -28 -1 -56 -6 -61 -5 -5 -40 3 -86 22 -91 36 -98 36 -94 9 2 -17 21 -29 86
-54 45 -17 87 -36 93 -42 6 -6 9 -53 7 -118 l-3 -108 -80 -30 c-44 -16 -113
-42 -153 -58 -41 -16 -75 -29 -78 -29 -2 0 -4 320 -4 710 0 409 4 710 9 710 5
0 68 -22 140 -49z m-624 -866 c1 -264 0 -485 -2 -492 -3 -7 -35 -1 -101 21
l-97 33 -2 414 c0 228 2 420 6 427 9 15 159 81 180 78 11 -1 14 -83 16 -481z
m80 471 l35 -15 0 -502 c0 -473 -1 -501 -17 -494 -10 4 -30 12 -45 17 l-28 10
0 499 c0 336 3 499 10 499 6 0 26 -7 45 -14z m248 -95 l27 -11 0 -454 c0 -351
-3 -456 -13 -463 -6 -5 -31 -17 -54 -26 -41 -16 -45 -16 -98 4 l-55 20 0 493
c0 271 3 495 6 498 5 5 75 -18 187 -61z m670 -40 l27 -11 -2 -312 -3 -312 -85
-33 c-47 -18 -93 -36 -102 -39 -17 -5 -18 18 -18 385 l0 390 78 -28 c42 -16
89 -34 105 -40z m-1223 -460 l0 -300 -45 16 -45 15 0 269 0 269 33 14 c60 27
57 42 57 -283z m407 -472 l28 -11 -30 -12 c-35 -15 -45 -12 -45 15 0 22 8 23
47 8z m173 -8 c0 -27 -10 -30 -45 -15 l-30 12 25 11 c38 15 50 13 50 -8z"/>
<path d="M798 1459 c-19 -10 -25 -49 -9 -49 25 0 41 14 41 36 0 26 -6 29 -32
13z"/>
<path d="M712 1413 c-5 -10 -7 -23 -5 -30 7 -19 53 6 53 29 0 23 -36 24 -48 1z"/>
<path d="M801 1361 c-16 -11 -26 -51 -12 -51 25 0 41 14 41 36 0 26 -7 29 -29
15z"/>
<path d="M723 1323 c-13 -4 -19 -53 -7 -53 18 0 44 24 44 40 0 19 -12 24 -37
13z"/>
</g>
</svg>
